<svg width="48px" height="48px" fill="none" version="1.1" viewBox="0 0 32 32" xmlns="http://www.w3.org/2000/svg">
 <g stroke-width="1.1429">
  <rect x="6e-7" y="6e-7" width="32" height="32" rx="6.8571" fill="url(#a)"/>
  <rect x="6e-7" y="6e-7" width="32" height="32" rx="6.8571" fill="url(#b)"/>
  <rect x="6e-7" y="6e-7" width="32" height="32" rx="6.8571" fill="url(#c)"/>
 </g>
 <g fill="#fff" stroke-width="1.1429">
  <path d="m24 9.7143a1.7143 1.7143 0 1 1-3.4286 0 1.7143 1.7143 0 0 1 3.4286 0z"/>
  <path d="m16 21.714a5.7143 5.7143 0 1 0 0-11.429 5.7143 5.7143 0 0 0 0 11.429zm0-2.2857a3.4286 3.4286 0 1 0 0-6.8571 3.4286 3.4286 0 0 0 0 6.8571z" clip-rule="evenodd" fill-rule="evenodd"/>
  <path d="m4.5714 15.543c0-3.84 0-5.76 0.74743-7.2274a6.8571 6.8571 0 0 1 2.9966-2.9966c1.4674-0.74743 3.3874-0.74743 7.2274-0.74743h0.91429c3.84 0 5.76 0 7.2274 0.74743a6.8571 6.8571 0 0 1 2.9966 2.9966c0.74743 1.4674 0.74743 3.3874 0.74743 7.2274v0.91429c0 3.84 0 5.76-0.74743 7.2274a6.8571 6.8571 0 0 1-2.9966 2.9966c-1.4674 0.74743-3.3874 0.74743-7.2274 0.74743h-0.91429c-3.84 0-5.76 0-7.2274-0.74743a6.8571 6.8571 0 0 1-2.9966-2.9966c-0.74743-1.4674-0.74743-3.3874-0.74743-7.2274zm10.971-8.6857h0.91429c1.9577 0 3.2891 0.00229 4.3177 0.085714 1.0023 0.082286 1.5143 0.23086 1.872 0.41257a4.5714 4.5714 0 0 1 1.9977 1.9977c0.18286 0.35771 0.33143 0.86971 0.41143 1.872 0.08457 1.0286 0.08686 2.36 0.08686 4.3177v0.91429c0 1.9577-0.0023 3.2891-0.08571 4.3177-0.08229 1.0023-0.23086 1.5143-0.41257 1.872a4.5714 4.5714 0 0 1-1.9977 1.9977c-0.35771 0.18286-0.86971 0.33143-1.872 0.41143-1.0286 0.08457-2.36 0.08686-4.3177 0.08686h-0.91429c-1.9577 0-3.2891-0.0023-4.3177-0.08571-1.0023-0.08229-1.5143-0.23086-1.872-0.41257a4.5714 4.5714 0 0 1-1.9977-1.9977c-0.18286-0.35771-0.33143-0.86971-0.41143-1.872-0.085714-1.0286-0.086857-2.36-0.086857-4.3177v-0.91429c0-1.9577 0.00229-3.2891 0.085714-4.3177 0.082286-1.0023 0.23086-1.5143 0.41257-1.872a4.5714 4.5714 0 0 1 1.9977-1.9977c0.35771-0.18286 0.86971-0.33143 1.872-0.41143 1.0286-0.084571 2.36-0.086857 4.3177-0.086857z" clip-rule="evenodd" fill-rule="evenodd"/>
 </g>
 <defs>
  <radialGradient id="a" cx="0" cy="0" r="1" gradientTransform="matrix(16.571 -24 24 16.571 11.429 24.001)" gradientUnits="userSpaceOnUse">
   <stop stop-color="#B13589" offset="0"/>
   <stop stop-color="#C62F94" offset=".793"/>
   <stop stop-color="#8A3AC8" offset="1"/>
  </radialGradient>
  <radialGradient id="b" cx="0" cy="0" r="1" gradientTransform="matrix(10.857 -23.428 23.428 10.857 10.285 33.143)" gradientUnits="userSpaceOnUse">
   <stop stop-color="#E0E8B7" offset="0"/>
   <stop stop-color="#FB8A2E" offset=".445"/>
   <stop stop-color="#E2425C" offset=".715"/>
   <stop stop-color="#E2425C" stop-opacity="0" offset="1"/>
  </radialGradient>
  <radialGradient id="c" cx="0" cy="0" r="1" gradientTransform="matrix(44 -6.2857 1.3445 9.4112 -1.7143 1.1429)" gradientUnits="userSpaceOnUse">
   <stop stop-color="#406ADC" offset=".157"/>
   <stop stop-color="#6A45BE" offset=".468"/>
   <stop stop-color="#6A45BE" stop-opacity="0" offset="1"/>
  </radialGradient>
 </defs>
</svg>
