<svg width="48px" height="48px" fill="none" version="1.1" viewBox="0 0 32 32" xmlns="http://www.w3.org/2000/svg">
 <g stroke-width="1.1034">
  <path d="m16 32c8.5319 0 15.448-6.9164 15.448-15.448 0-8.5319-6.9164-15.448-15.448-15.448-8.5319 0-15.448 6.9164-15.448 15.448 0 2.7697 0.72938 5.3705 2.0061 7.6193l-2.0061 7.829 8.0717-1.8714a15.38 15.38 0 0 0 7.3765 1.8714zm0-2.3768c7.2199 0 13.071-5.8516 13.071-13.071 0-7.2188-5.8516-13.071-13.071-13.071-7.2188 0-13.071 5.8527-13.071 13.071 0 2.7873 0.87172 5.3705 2.3592 7.4924l-1.1719 4.3917 4.4679-1.1178a13.011 13.011 0 0 0 7.4152 2.3062z" clip-rule="evenodd" fill="#bfc8d0" fill-rule="evenodd"/>
  <path d="m29.241 15.448c0 7.3125-5.9288 13.241-13.241 13.241-2.7895 0-5.3771-0.8629-7.5112-2.3349l-4.5274 1.131 1.1862-4.4469a13.181 13.181 0 0 1-2.389-7.5906c0-7.3125 5.9288-13.241 13.241-13.241 7.3125 0 13.241 5.9288 13.241 13.241z" fill="url(#a)"/>
  <path d="m16 30.897c8.5319 0 15.448-6.9164 15.448-15.448 0-8.5319-6.9164-15.448-15.448-15.448-8.5319 0-15.448 6.9164-15.448 15.448 0 2.7697 0.72938 5.3705 2.0061 7.6193l-2.0061 7.829 8.0717-1.8714a15.38 15.38 0 0 0 7.3765 1.8714zm0-2.3768c7.2199 0 13.071-5.8516 13.071-13.071 0-7.2188-5.8516-13.071-13.071-13.071-7.2188 0-13.071 5.8527-13.071 13.071 0 2.7873 0.87172 5.3705 2.3592 7.4924l-1.1719 4.3917 4.4679-1.1178a13.011 13.011 0 0 0 7.4152 2.3062z" clip-rule="evenodd" fill="#fff" fill-rule="evenodd"/>
  <path d="m12.138 8.2759c-0.36745-0.73821-0.93131-0.6731-1.5007-0.6731-1.0163 0-2.603 1.2193-2.603 3.4869 0 1.8582 0.81876 3.893 3.5785 6.9363 2.6637 2.9374 6.1628 4.4568 9.0681 4.405 2.9054-0.05186 3.5034-2.5523 3.5034-3.3964 0-0.37407-0.23172-0.56055-0.39283-0.61131-0.98979-0.47448-2.816-1.3606-3.2309-1.5272-0.416-0.16552-0.63228 0.05959-0.7669 0.18207-0.37738 0.35862-1.1244 1.4168-1.3793 1.6552-0.256 0.23724-0.63779 0.11696-0.79558 0.02648-0.58483-0.23393-2.1672-0.93793-3.4284-2.1606-1.5614-1.5128-1.653-2.0337-1.9465-2.4971-0.23503-0.37076-0.0629-0.59807 0.02317-0.69738 0.33655-0.38731 0.8011-0.98648 1.0086-1.2844 0.20855-0.29793 0.04414-0.74924-0.05517-1.0306-0.42703-1.2105-0.78896-2.2234-1.0825-2.8138z" fill="#fff"/>
 </g>
 <defs>
  <linearGradient id="a" x1="26.5" x2="4" y1="7" y2="28" gradientTransform="matrix(1.1034 0 0 1.1034 -1.6552 -2.2069)" gradientUnits="userSpaceOnUse">
   <stop stop-color="#5BD066" offset="0"/>
   <stop stop-color="#27B43E" offset="1"/>
  </linearGradient>
 </defs>
</svg>
